<?xml version="1.0" standalone="no"?>
<!DOCTYPE svg PUBLIC "-//W3C//DTD SVG 20010904//EN"
 "http://www.w3.org/TR/2001/REC-SVG-20010904/DTD/svg10.dtd">
<svg version="1.0" xmlns="http://www.w3.org/2000/svg"
 width="1000.000000pt" height="1000.000000pt" viewBox="0 0 1000.000000 1000.000000"
 preserveAspectRatio="xMidYMid meet">
<metadata>
Created by potrace 1.14, written by Peter Selinger 2001-2017
</metadata>
<g transform="translate(0.000000,1000.000000) scale(0.100000,-0.100000)"
fill="#000000" stroke="none">
<path d="M4650 8486 c-308 -177 -543 -311 -1785 -1018 -236 -135 -718 -409
-1070 -610 -352 -200 -897 -510 -1212 -689 -486 -276 -569 -326 -556 -336 9
-7 380 -221 825 -475 l808 -463 0 -1792 c0 -986 3 -1793 6 -1793 3 0 296 166
652 369 1125 641 1996 1137 2344 1335 l337 191 1 1793 c0 1096 4 1792 9 1790
5 -1 755 -428 1665 -948 l1656 -945 0 -1792 c0 -986 2 -1793 4 -1793 4 0 412
199 931 454 220 109 475 234 568 278 l167 81 -2 1860 -3 1859 -395 225 c-217
124 -512 292 -655 373 -626 355 -2135 1213 -2630 1495 -1168 666 -1308 745
-1319 744 -6 0 -162 -87 -346 -193z"/>
</g>
</svg>
